<?xml version="1.0" encoding="utf-8"?>
<!-- Generator: Adobe Illustrator 23.0.2, SVG Export Plug-In . SVG Version: 6.00 Build 0)  -->
<svg version="1.1" id="Layer_1" xmlns="http://www.w3.org/2000/svg" xmlns:xlink="http://www.w3.org/1999/xlink" x="0px" y="0px"
	 viewBox="0 0 12 12" style="enable-background:new 0 0 12 12;" xml:space="preserve">
<style type="text/css">
	.st0{fill:#FFFFFF;}
	.st1{fill-rule:evenodd;clip-rule:evenodd;fill:#FFFFFF;}
</style>
<path class="st0" d="M3.8,2.3C3.8,1,4.8,0,6,0s2.3,1,2.3,2.3V6c0,1.2-1,2.3-2.3,2.3S3.8,7.2,3.8,6V2.3z"/>
<path class="st1" d="M2.6,4.9C2.8,4.9,3,5,3,5.3V6c0,1.7,1.3,3,3,3s3-1.3,3-3V5.3C9,5,9.2,4.9,9.4,4.9S9.8,5,9.8,5.3V6
	c0,1.9-1.5,3.5-3.4,3.7v1.5h2.3c0.2,0,0.4,0.2,0.4,0.4S8.8,12,8.6,12H3.4C3.2,12,3,11.8,3,11.6s0.2-0.4,0.4-0.4h2.3V9.7
	C3.7,9.5,2.2,7.9,2.3,6V5.3C2.3,5,2.4,4.9,2.6,4.9z"/>
</svg>
